<svg width="30" height="30" viewBox="0 0 30 30" fill="none" xmlns="http://www.w3.org/2000/svg">
<rect x="0.5" y="0.5" width="29" height="29" rx="14.5" stroke="black"/>
<g clip-path="url(#clip0_2092_19112)">
<path fill-rule="evenodd" clip-rule="evenodd" d="M8.8236 22.7941V14.2647C8.8236 14.1087 8.88558 13.9591 8.99589 13.8488C9.10621 13.7385 9.25583 13.6765 9.41184 13.6765C9.56785 13.6765 9.71747 13.7385 9.82778 13.8488C9.9381 13.9591 10.0001 14.1087 10.0001 14.2647V22.7941H22.9413V14.2647C22.9413 14.1087 23.0032 13.9591 23.1135 13.8488C23.2239 13.7385 23.3735 13.6765 23.5295 13.6765C23.6855 13.6765 23.8351 13.7385 23.9454 13.8488C24.0557 13.9591 24.1177 14.1087 24.1177 14.2647V22.7941H24.4118C25.1963 22.7941 25.1963 23.9706 24.4118 23.9706H5.58831C4.8039 23.9706 4.8039 22.7941 5.58831 22.7941H5.88243V6.61765C5.88243 6.46164 5.9444 6.31202 6.05472 6.20171C6.16503 6.09139 6.31465 6.02942 6.47066 6.02942H9.41184C9.56785 6.02942 9.71747 6.09139 9.82778 6.20171C9.9381 6.31202 10.0001 6.46164 10.0001 6.61765V12.7941C10.0001 12.9501 9.9381 13.0998 9.82778 13.2101C9.71747 13.3204 9.56785 13.3824 9.41184 13.3824C9.25583 13.3824 9.10621 13.3204 8.99589 13.2101C8.88558 13.0998 8.8236 12.9501 8.8236 12.7941V7.20589H7.0589V22.7941H8.8236Z" fill="black"/>
<path fill-rule="evenodd" clip-rule="evenodd" d="M24.0302 14.1241C24.1494 14.222 24.3022 14.2692 24.4557 14.2555C24.6093 14.2419 24.7513 14.1685 24.8513 14.0511C24.9513 13.9338 25.0013 13.7819 24.9904 13.6281C24.9795 13.4743 24.9087 13.3309 24.7932 13.2288L16.852 6.46413C16.7456 6.37347 16.6103 6.32367 16.4705 6.32367C16.3307 6.32367 16.1955 6.37347 16.0891 6.46413L8.14789 13.2288C8.03238 13.3309 7.96156 13.4743 7.95069 13.6281C7.93981 13.7819 7.98974 13.9338 8.08973 14.0511C8.18973 14.1685 8.33179 14.2419 8.48536 14.2555C8.63892 14.2692 8.7917 14.222 8.91083 14.1241L16.4705 7.68443L24.0302 14.1241Z" fill="black"/>
<path fill-rule="evenodd" clip-rule="evenodd" d="M15.8825 11.9147C15.8825 11.5882 16.1472 11.3235 16.4708 11.3235C16.5483 11.3235 16.625 11.3388 16.6966 11.3686C16.7681 11.3983 16.8331 11.4419 16.8877 11.4969C16.9424 11.5518 16.9857 11.617 17.0151 11.6887C17.0445 11.7604 17.0594 11.8372 17.059 11.9147V13.0882H15.8825V11.9147ZM14.7061 13.6765C14.7061 13.8325 14.768 13.9821 14.8783 14.0924C14.9887 14.2027 15.1383 14.2647 15.2943 14.2647H17.6472C17.8032 14.2647 17.9529 14.2027 18.0632 14.0924C18.1735 13.9821 18.2355 13.8325 18.2355 13.6765V11.9147C18.2359 11.6827 18.1905 11.4529 18.102 11.2385C18.0135 11.024 17.8835 10.8292 17.7196 10.665C17.5557 10.5008 17.3611 10.3705 17.1468 10.2817C16.9325 10.1928 16.7028 10.1471 16.4708 10.1471C15.4966 10.1471 14.7061 10.9391 14.7061 11.9147V13.6765ZM20.5884 17.5V22.7941C20.5884 22.9501 20.6504 23.0998 20.7607 23.2101C20.871 23.3204 21.0206 23.3824 21.1766 23.3824C21.3327 23.3824 21.4823 23.3204 21.5926 23.2101C21.7029 23.0998 21.7649 22.9501 21.7649 22.7941V16.9118C21.7649 16.7558 21.7029 16.6061 21.5926 16.4958C21.4823 16.3855 21.3327 16.3235 21.1766 16.3235H17.9413C17.7853 16.3235 17.6357 16.3855 17.5254 16.4958C17.4151 16.6061 17.3531 16.7558 17.3531 16.9118V22.7941C17.3531 22.9501 17.4151 23.0998 17.5254 23.2101C17.6357 23.3204 17.7853 23.3824 17.9413 23.3824C18.0974 23.3824 18.247 23.3204 18.3573 23.2101C18.4676 23.0998 18.5296 22.9501 18.5296 22.7941V17.5H20.5884Z" fill="black"/>
<path fill-rule="evenodd" clip-rule="evenodd" d="M8.52972 13.0882C7.7453 13.0882 7.7453 14.2647 8.52972 14.2647H24.4121C25.1965 14.2647 25.1965 13.0882 24.4121 13.0882H8.52972ZM12.6474 17.5H14.4121V20.1471C14.4121 20.3031 14.474 20.4527 14.5844 20.563C14.6947 20.6733 14.8443 20.7353 15.0003 20.7353C15.1563 20.7353 15.3059 20.6733 15.4162 20.563C15.5266 20.4527 15.5885 20.3031 15.5885 20.1471V16.9118C15.5885 16.7558 15.5266 16.6061 15.4162 16.4958C15.3059 16.3855 15.1563 16.3235 15.0003 16.3235H12.0591C11.9031 16.3235 11.7535 16.3855 11.6432 16.4958C11.5329 16.6061 11.4709 16.7558 11.4709 16.9118V20.1471C11.4709 20.3031 11.5329 20.4527 11.6432 20.563C11.7535 20.6733 11.9031 20.7353 12.0591 20.7353C12.2151 20.7353 12.3648 20.6733 12.4751 20.563C12.5854 20.4527 12.6474 20.3031 12.6474 20.1471V17.5Z" fill="black"/>
<path fill-rule="evenodd" clip-rule="evenodd" d="M15.2944 19.853H11.765C11.609 19.853 11.4594 19.9149 11.349 20.0252C11.2387 20.1356 11.1768 20.2852 11.1768 20.4412C11.1768 20.5972 11.2387 20.7468 11.349 20.8571C11.4594 20.9674 11.609 21.0294 11.765 21.0294H15.2944C15.4504 21.0294 15.6 20.9674 15.7104 20.8571C15.8207 20.7468 15.8826 20.5972 15.8826 20.4412C15.8826 20.2852 15.8207 20.1356 15.7104 20.0252C15.6 19.9149 15.4504 19.853 15.2944 19.853Z" fill="black"/>
</g>
<defs>
<clipPath id="clip0_2092_19112">
<rect width="20" height="17.9412" fill="white" transform="translate(5 6.02942)"/>
</clipPath>
</defs>
</svg>
