<svg width="800" height="506" viewBox="0 0 800 506" fill="none" xmlns="http://www.w3.org/2000/svg">
<g clip-path="url(#clip0_3162_8599)">
<path d="M792.016 361.093C800.597 333.313 802.598 303.738 796.433 275.314C786.818 230.847 755.855 177.014 666.508 153.791C497.362 109.808 438.633 -18.8038 280.391 22.1641C280.391 22.1641 195.484 37.6077 155.297 178.188C115.109 318.767 -42.3511 321.161 11.8456 443.558C20.702 463.559 44.5799 485.401 78.8324 506L720.521 503.837C764.872 450.486 778.674 404.34 792.016 361.07V361.093Z" fill="#E5E5E5"/>
<path d="M640.606 260.538H616.521V234.185C616.521 220.951 607.32 209.903 594.967 207.026V174.321H586.11V206.405C571.894 207.694 560.76 219.616 560.76 234.185V261.32H536.813V291.54H535.203V347.721L491.68 347.399V280.262H441.808V329.47H406.819V377.273H364.516V503.791H505.045H535.226H711.435V344.246H640.583L640.652 260.538H640.606Z" fill="#C0C0C0"/>
<path d="M143.818 330.091V267.189H167.373V233.563H176.23V267.189H197.945V330.091H222.306V367.768H261.137V239.409H342.179V503.791H289.362H266.611H209.355H182.924H113.844V330.091H143.818Z" fill="#C0C0C0"/>
<path d="M586.595 503.146L217.202 503.445C203.215 503.445 191.852 492.122 191.852 478.128L611.922 477.806C611.922 491.799 600.604 503.169 586.618 503.169L586.595 503.146Z" fill="black"/>
<path d="M586.596 494.423L217.202 494.722C206.275 494.722 197.005 487.818 193.439 478.128H191.875C191.875 492.122 203.239 503.468 217.225 503.445L586.619 503.146C600.605 503.146 611.946 491.776 611.923 477.783H610.358C606.816 487.472 597.545 494.423 586.619 494.423H586.596Z" fill="#727272"/>
<path d="M425.752 486.414L378.02 486.46C373.327 486.46 369.531 482.662 369.531 477.99L434.218 477.944C434.218 482.639 430.422 486.437 425.752 486.437V486.414Z" fill="#27429C"/>
<path d="M590.301 477.806L213.477 478.105L213.293 250.526C213.293 237.476 223.852 226.889 236.895 226.866L566.469 226.613C579.512 226.613 590.094 237.177 590.117 250.227L590.301 477.783V477.806Z" fill="#727272"/>
<path d="M570.587 246.406H233.008V458.288H570.587V246.406Z" fill="#C3C3C3"/>
<path d="M570.654 438.035H233.074V458.288H570.654V438.035Z" fill="black"/>
<path d="M570.493 246.406H232.914V256.464H570.493V246.406Z" fill="black"/>
<path opacity="0.16" d="M345.496 246.452L233.008 359.183L233.077 458.427H233.33L444.941 246.383L345.496 246.452Z" fill="#727272"/>
<path opacity="0.16" d="M276.668 458.404L326.517 458.358L538.128 246.291L488.279 246.36L276.668 458.404Z" fill="#727272"/>
<path opacity="0.16" d="M530.95 458.196L570.632 418.425L570.563 343.21L451.473 458.243L530.95 458.196Z" fill="#727272"/>
<path d="M590.301 336.904H213.293V378.539H590.301V336.904Z" fill="#F5D100"/>
<mask id="mask0_3162_8599" style="mask-type:luminance" maskUnits="userSpaceOnUse" x="213" y="336" width="378" height="43">
<path d="M590.301 336.904H213.293V378.539H590.301V336.904Z" fill="white"/>
</mask>
<g mask="url(#mask0_3162_8599)">
<path d="M260.337 393.154H227.879L255.805 329.24H288.241L260.337 393.154Z" fill="white"/>
<path d="M329.509 393.154H297.074L324.978 329.24H357.436L329.509 393.154Z" fill="white"/>
<path d="M398.681 393.154H366.246L394.173 329.24H426.608L398.681 393.154Z" fill="white"/>
<path d="M467.853 393.154H435.418L463.344 329.24H495.78L467.853 393.154Z" fill="white"/>
<path d="M537.025 393.154H504.59L532.516 329.24H564.952L537.025 393.154Z" fill="white"/>
</g>
<path d="M183.017 265.003L175.655 265.279L171.331 263.921C169.352 263.299 167.19 264.036 166.017 265.762L165.465 266.568L187.019 278.467L191.183 269.537L182.994 265.003H183.017Z" fill="#14103D"/>
<path d="M187.044 278.674L165.328 266.683L166.087 265.302C166.248 265.026 166.57 264.934 166.846 265.072L188.079 276.81L187.044 278.674Z" fill="#14103D"/>
<path d="M191.209 269.56L196.891 259.686L191.209 249.513L183.02 265.003L191.209 269.56Z" fill="#EB8175"/>
<path d="M235.788 212.872C235.788 212.872 205.078 204.057 202.134 212.343C199.166 220.628 181.27 257.338 181.27 257.338L194.635 264.312L214.694 229.466L241.677 227.119L235.811 212.872H235.788Z" fill="#14103D"/>
<path d="M210.832 276.188L204.828 280.009L200.388 280.907C198.341 281.321 196.823 283.024 196.639 285.095L196.547 286.062L221.161 286.016L220.471 276.165H210.832V276.188Z" fill="#14103D"/>
<path d="M221.275 286.2L196.477 286.246V284.681C196.477 284.382 196.73 284.129 197.029 284.129L221.275 284.083V286.223" fill="#14103D"/>
<path d="M220.494 276.211L221.276 259.686L211.476 258.581L210.832 276.188L220.494 276.211Z" fill="#EB8175"/>
<path d="M239.953 211.445L211.014 212.757C211.014 212.757 206.85 212.987 207.126 222.723C207.402 232.481 207.379 271.7 207.379 271.7L221.274 272.184L223.942 231.101L252.904 230.732C259 230.663 264.682 227.165 267.097 221.549C268.017 219.409 268.454 216.992 267.902 214.46L239.953 211.422V211.445Z" fill="black"/>
<path d="M212.484 205.622C212.484 208.361 210.621 208.775 207.884 208.798C205.146 208.798 202.547 208.407 202.547 205.645C202.547 202.906 204.755 200.674 207.516 200.651C210.253 200.651 212.484 202.86 212.507 205.622H212.484Z" fill="#E1AD9D"/>
<path d="M215.981 208.43H210.23C208.734 208.43 207.492 207.21 207.492 205.714C207.492 204.218 208.711 202.975 210.207 202.975H215.958C217.453 202.975 218.695 204.195 218.695 205.691C218.695 207.187 217.476 208.43 215.981 208.43Z" fill="#E1AD9D"/>
<path d="M215.749 209.006L213.84 199.592L237.465 197.014L242.18 169.395C242.663 166.887 246.298 163.78 248.805 164.24L248.092 164.033C250.6 164.516 252.9 167.416 252.44 169.925L247.839 202.975C247.494 204.748 246.16 206.175 244.389 206.612L215.772 209.006H215.749Z" fill="#828282"/>
<path d="M262.957 164.861C263.44 164.907 263.923 164.999 264.383 165.184L264.613 165.276C268.662 166.864 271.422 171.214 271.606 175.287L267.903 214.483C243.427 214.276 239.953 211.445 239.953 211.445L241.908 171.352C242.208 167.577 243.933 164.01 248.234 163.665L262.957 164.861Z" fill="#9E9E9E"/>
<path d="M235.996 208.683C236.18 211.422 234.363 211.951 231.626 212.158C228.888 212.343 226.266 212.112 226.082 209.374C225.898 206.635 227.968 204.264 230.705 204.08C233.443 203.896 235.812 205.967 235.996 208.706V208.683Z" fill="#EB8175"/>
<path d="M239.655 211.261L233.927 211.652C232.431 211.744 231.12 210.616 231.005 209.12C230.913 207.624 232.04 206.313 233.536 206.197L239.264 205.806C240.759 205.714 242.07 206.842 242.162 208.338C242.254 209.834 241.127 211.146 239.632 211.261H239.655Z" fill="#EB8175"/>
<path d="M239.468 211.859L236.938 202.607L262.679 198.464L261.206 174.505C261.505 171.973 264.289 169.119 266.819 169.418C269.35 169.718 271.857 172.479 271.535 175.011L273.398 203.712C273.168 205.507 271.926 207.026 270.201 207.555L239.468 211.836V211.859Z" fill="#9E9E9E"/>
<path d="M194.933 180.029L223.02 182.675C223.94 182.768 224.677 183.481 224.792 184.402L227.736 209.742C227.874 210.985 226.839 212.043 225.597 211.928L197.026 209.236C196.083 209.144 195.347 208.407 195.255 207.463L192.77 182.169C192.655 180.949 193.691 179.914 194.91 180.029H194.933Z" fill="black"/>
<path d="M193.323 179.891L221.411 182.537C222.331 182.629 223.067 183.343 223.182 184.264L226.127 209.604C226.265 210.847 225.23 211.905 223.987 211.79L195.417 209.097C194.474 209.005 193.738 208.269 193.645 207.325L191.161 182.031C191.046 180.811 192.081 179.776 193.3 179.891H193.323Z" fill="black"/>
<path d="M226.955 209.926L246.14 211.744C246.715 211.79 247.152 212.32 247.106 212.895C247.06 213.47 246.531 213.908 245.956 213.862L225.598 212.02L226.955 209.926Z" fill="black"/>
<path d="M209.402 195.242C209.241 196.922 207.746 198.165 206.044 198.027C204.365 197.866 203.122 196.37 203.26 194.667C203.421 192.987 204.917 191.744 206.619 191.882C208.298 192.043 209.54 193.539 209.402 195.242Z" fill="white"/>
<path d="M260.332 180.029L260.953 198.027L236.938 202.607L258.101 195.979L260.332 180.029Z" fill="#828282"/>
<path d="M247.594 162.468L249.204 166.772C249.779 168.337 251.228 169.395 252.885 169.51C256.036 169.718 258.29 166.541 257.048 163.641L254.242 157.013L247.617 162.445L247.594 162.468Z" fill="#EB8175"/>
<path d="M249.02 166.311C249.02 166.311 256.933 164.815 255.76 157.888C254.586 150.96 247.156 156.369 247.156 156.369L247.892 163.273L249.02 166.311Z" fill="#E16C5F"/>
<path d="M236.827 145.597C233.928 151.811 236.597 159.199 242.808 162.099C249.019 164.999 256.403 162.33 259.301 156.115C262.2 149.901 259.531 142.513 253.32 139.613C247.109 136.713 239.725 139.383 236.827 145.597Z" fill="#EB8175"/>
<mask id="mask1_3162_8599" style="mask-type:luminance" maskUnits="userSpaceOnUse" x="235" y="138" width="26" height="26">
<path d="M236.827 145.597C233.928 151.811 236.597 159.199 242.808 162.099C249.019 164.999 256.403 162.33 259.301 156.115C262.2 149.901 259.531 142.513 253.32 139.613C247.109 136.713 239.725 139.383 236.827 145.597Z" fill="white"/>
</mask>
<g mask="url(#mask1_3162_8599)">
<path d="M252.651 153.307C252.651 153.307 250.696 163.25 258.011 163.48C265.326 163.688 261.347 144.815 261.347 144.815L249.776 133.169L232.086 137.519L233.834 148.957C233.834 148.957 236.641 150.453 251.869 147.945L252.674 153.284L252.651 153.307Z" fill="black"/>
<path d="M245.43 145.528L251.25 154.021L256.264 148.497L245.43 145.528Z" fill="black"/>
</g>
<path d="M250.722 151.006C249.894 152.755 250.653 154.85 252.424 155.678C254.172 156.507 256.266 155.747 257.094 153.975C257.922 152.226 257.163 150.131 255.392 149.303C253.643 148.474 251.55 149.234 250.722 151.006Z" fill="#EB8175"/>
<path d="M234.41 148.796C234.41 148.796 231.719 139.015 238.068 132.962C243.29 127.967 251.847 128.289 256.494 133.836C258.679 136.437 260.428 140.373 260.589 146.265L234.41 148.819V148.796Z" fill="#F5D100"/>
<path d="M235.745 148.612L235.676 142.513C235.676 140.971 236.872 139.682 238.413 139.613C239.931 139.544 241.266 140.672 241.404 142.191L242.025 148.29" stroke="#F1AB00" stroke-width="0.28" stroke-miterlimit="10"/>
<path d="M260.588 146.242L232.109 148.981" stroke="white" stroke-width="1.12" stroke-linecap="round" stroke-linejoin="round"/>
<path d="M519.885 476.402L526.257 482.593L518.988 486.506L512.754 480.407L519.885 476.402Z" fill="#EB8175"/>
<path d="M474.938 430.186L479.193 449.082C480.044 452.857 481.701 456.493 484.047 459.831L512.134 485.079L523.245 476.034L499.275 450.624L490.488 417.113L474.938 430.186Z" fill="#14103D"/>
<path d="M518.783 486.345L516.483 493.687L513.86 497.346C512.641 499.026 512.687 501.305 513.975 502.939L514.573 503.698L532.493 486.989L525.339 480.292L518.806 486.345H518.783Z" fill="#14103D"/>
<path d="M532.656 487.035L514.598 503.883L513.148 502.318L531.206 485.493L532.656 487.035Z" fill="#14103D"/>
<path d="M458.464 487.91L456.072 495.896L447.859 493.687L450.252 485.838L458.464 487.91Z" fill="#EB8175"/>
<path d="M469.507 409.104L446.48 487.012L461.019 490.649L473.993 451.591L489.911 426.044C490.717 424.893 491.522 423.719 492.189 422.476C493.454 420.129 494.029 417.597 494.006 415.042L493.96 409.979L469.53 409.127L469.507 409.104Z" fill="black"/>
<path d="M448.323 492.927L441.053 495.62L436.522 495.781C434.428 495.85 432.657 497.3 432.128 499.302L431.875 500.246L456.213 504.251L457.156 494.4L448.3 492.927H448.323Z" fill="#14103D"/>
<path d="M456.303 504.412L431.781 500.384L432.126 498.267L456.648 502.317L456.303 504.412Z" fill="#14103D"/>
<path d="M437.348 329.976L428.031 344.522L432.494 347.721L442.132 332.347L437.348 329.976Z" fill="black"/>
<path d="M425.247 305.902C425.247 305.902 429.549 323.923 451.356 331.012C451.977 331.219 452.46 331.748 452.553 332.393C452.829 334.487 452.829 338.998 448.021 340.333C447.561 340.448 447.055 340.356 446.664 340.126C443.328 338.032 426.926 328.457 411.008 331.219L425.27 305.925L425.247 305.902Z" fill="#4265D1"/>
<path d="M425.247 305.902C425.247 305.902 421.244 323.877 410.984 331.196C410.984 331.196 412.434 315.43 425.247 305.902Z" fill="black"/>
<path d="M424.992 343.578C424.325 346.893 427.04 350.92 430.352 351.588C433.665 352.255 436.885 350.138 437.552 346.824C438.219 343.509 435.505 339.482 432.192 338.814C428.88 338.147 425.659 340.264 424.992 343.578Z" fill="#EB8175"/>
<path d="M442.498 353.268L436.034 346.524L431.824 351.726L442.498 359.551" fill="#EB8175"/>
<path d="M441.461 347.031L434.629 357.181L453.285 374.258C454.412 374.581 455.608 374.696 456.781 374.604L481.418 371.404C485.306 371.22 488.297 367.929 488.113 364.039C487.929 360.15 488.665 354.534 484.8 354.718L456.183 360.61L441.461 347.031Z" fill="#828282"/>
<path d="M496.72 370.322C497.387 364.937 494.926 359.62 490.371 356.674C488.324 355.362 486.276 354.465 484.827 354.718C479.927 355.546 474.866 357.779 472.704 364.407C469.023 375.685 467.988 409.035 467.988 409.035L494.397 409.933L496.743 370.299L496.72 370.322Z" fill="#9E9E9E"/>
<path d="M486.965 371.174L494.901 400.358L496.511 375.593L486.965 371.174Z" fill="#828282"/>
<path d="M519.333 428.759C521.817 426.481 522.001 421.625 519.747 419.139C517.469 416.63 513.605 416.469 511.12 418.725C508.613 421.003 508.452 425.859 510.706 428.345C512.984 430.831 516.848 431.015 519.333 428.759Z" fill="#EB8175"/>
<path d="M507.348 407.976L512.155 419.852L518.619 418.149L514.617 405.536" fill="#EB8175"/>
<path d="M507.647 417.136L520.874 414.236L511.903 383.557C511.581 382.429 511.028 381.347 510.315 380.403L493.845 359.896C491.613 356.697 487.864 357.273 484.689 359.505C481.492 361.738 480.733 366.111 482.941 369.31L498.791 388.39L507.624 417.159L507.647 417.136Z" fill="#9E9E9E"/>
<path d="M478.641 350.713L479.147 355.339C479.331 357.019 480.458 358.423 482.068 358.93C485.105 359.919 488.095 357.365 487.612 354.211L486.508 347.008L478.664 350.69L478.641 350.713Z" fill="#EB8175"/>
<path d="M479.076 354.833C479.076 354.833 487.219 354.557 487.817 347.491C488.392 340.425 479.743 344.637 479.743 344.637L478.73 351.588L479.076 354.833Z" fill="#E16C5F"/>
<path d="M472.267 331.495C467.873 336.858 468.655 344.775 474.015 349.171C479.375 353.567 487.288 352.785 491.682 347.422C496.076 342.059 495.293 334.142 489.934 329.746C484.574 325.35 476.66 326.132 472.267 331.495Z" fill="#EB8175"/>
<mask id="mask2_3162_8599" style="mask-type:luminance" maskUnits="userSpaceOnUse" x="469" y="326" width="26" height="27">
<path d="M472.267 331.495C467.873 336.858 468.655 344.775 474.015 349.171C479.375 353.567 487.288 352.785 491.682 347.422C496.076 342.059 495.293 334.142 489.934 329.746C484.574 325.35 476.66 326.132 472.267 331.495Z" fill="white"/>
</mask>
<g mask="url(#mask2_3162_8599)">
<path d="M485.883 343.003C485.883 343.003 481.49 352.278 488.598 354.304C495.706 356.329 496.511 336.835 496.511 336.835L488.069 322.542L469.643 322.404L468.516 334.073C468.516 334.073 470.908 336.236 486.436 337.571L485.883 343.003Z" fill="black"/>
<path d="M480.73 333.566L484.319 343.371L490.599 339.182L480.73 333.566Z" fill="black"/>
</g>
<path d="M484.55 340.241C483.308 341.76 483.538 343.993 485.057 345.235C486.575 346.478 488.806 346.248 490.048 344.729C491.291 343.21 491.061 340.977 489.542 339.735C488.024 338.492 485.793 338.722 484.55 340.241Z" fill="#EB8175"/>
<path d="M469.024 335.109C469.024 335.109 468.403 324.867 475.948 320.194C482.159 316.351 490.556 318.445 494.006 324.913C495.616 327.951 496.537 332.186 495.478 338.055L469.047 335.109H469.024Z" fill="#F5D100"/>
<path d="M470.402 335.224L471.599 329.171C471.898 327.628 473.37 326.616 474.911 326.869C476.429 327.122 477.51 328.526 477.326 330.045L476.659 336.213" stroke="#F1AB00" stroke-width="0.28" stroke-miterlimit="10"/>
<path d="M495.477 338.032L466.723 334.809" stroke="white" stroke-width="1.13" stroke-linecap="round" stroke-linejoin="round"/>
<path d="M670.993 412.51L641.227 441.855" stroke="black" stroke-width="2.65" stroke-miterlimit="10"/>
<path d="M670.993 381.14L641.227 410.485" stroke="black" stroke-width="2.65" stroke-miterlimit="10"/>
<path d="M670.993 349.77L641.227 379.138" stroke="black" stroke-width="2.65" stroke-miterlimit="10"/>
<path d="M670.993 318.422L641.227 347.767" stroke="black" stroke-width="2.65" stroke-miterlimit="10"/>
<path d="M670.993 287.052L641.227 316.397" stroke="black" stroke-width="2.65" stroke-miterlimit="10"/>
<path d="M670.993 255.704L641.227 285.049" stroke="black" stroke-width="2.65" stroke-miterlimit="10"/>
<path d="M670.993 224.334L641.227 253.679" stroke="black" stroke-width="2.65" stroke-miterlimit="10"/>
<path d="M670.993 192.987L641.227 222.332" stroke="black" stroke-width="2.65" stroke-miterlimit="10"/>
<path d="M670.993 161.616L641.227 190.961" stroke="black" stroke-width="2.65" stroke-miterlimit="10"/>
<path d="M670.993 130.246L641.227 159.591" stroke="black" stroke-width="2.65" stroke-miterlimit="10"/>
<path d="M670.993 98.8984L641.227 128.243" stroke="black" stroke-width="2.65" stroke-miterlimit="10"/>
<path d="M641.227 410.485H670.993" stroke="black" stroke-width="2.65" stroke-miterlimit="10"/>
<path d="M641.227 379.137H670.993" stroke="black" stroke-width="2.65" stroke-miterlimit="10"/>
<path d="M641.227 347.767H670.993" stroke="black" stroke-width="2.65" stroke-miterlimit="10"/>
<path d="M641.227 316.397H670.993" stroke="black" stroke-width="2.65" stroke-miterlimit="10"/>
<path d="M641.227 285.049H670.993" stroke="black" stroke-width="2.65" stroke-miterlimit="10"/>
<path d="M641.227 253.679H670.993" stroke="black" stroke-width="2.65" stroke-miterlimit="10"/>
<path d="M641.227 222.332H670.993" stroke="black" stroke-width="2.65" stroke-miterlimit="10"/>
<path d="M641.227 190.961H670.993" stroke="black" stroke-width="2.65" stroke-miterlimit="10"/>
<path d="M641.227 159.591H670.993" stroke="black" stroke-width="2.65" stroke-miterlimit="10"/>
<path d="M641.227 128.243H670.993" stroke="black" stroke-width="2.65" stroke-miterlimit="10"/>
<path d="M641.227 450.348V103.916" stroke="#727272" stroke-width="2.65" stroke-miterlimit="10"/>
<path d="M670.992 450.348V103.916" stroke="#727272" stroke-width="2.65" stroke-miterlimit="10"/>
<path d="M685.14 441.855H625.883V503.445H685.14V441.855Z" fill="black"/>
<path d="M640.099 45.2489H671.062C676.514 45.2489 680.953 49.6909 680.953 55.1456V94.0191C680.953 99.4739 676.514 103.916 671.062 103.916H640.099C634.647 103.916 630.207 99.4739 630.207 94.0191V55.1456C630.207 49.6909 634.647 45.2489 640.099 45.2489Z" fill="black"/>
<path d="M634.832 59.3805H654.776C658.917 59.3805 662.275 62.7408 662.275 66.8836V79.3351C662.275 83.4779 658.917 86.8382 654.776 86.8382H634.832V59.4035V59.3805Z" fill="black"/>
<path d="M444.938 107.115L468.723 176.277" stroke="black" stroke-width="2.16" stroke-miterlimit="10"/>
<path d="M428.375 98.8984L381.953 161.616" stroke="black" stroke-width="2.16" stroke-miterlimit="10"/>
<path d="M354.494 196.788L402.457 259.53C407.736 266.436 417.611 267.753 424.514 262.471L487.223 214.483C494.126 209.201 495.442 199.321 490.162 192.415L442.2 129.673C436.921 122.767 427.045 121.45 420.143 126.732L357.433 174.719C350.531 180.001 349.215 189.882 354.494 196.788Z" fill="#F5D100"/>
<path d="M366.823 196.395L406.079 247.748C410.393 253.392 418.464 254.468 424.105 250.152L475.431 210.875C481.072 206.558 482.147 198.484 477.833 192.84L438.577 141.487C434.262 135.843 426.192 134.767 420.551 139.083L369.225 178.36C363.583 182.677 362.508 190.751 366.823 196.395Z" stroke="black" stroke-width="1.11" stroke-miterlimit="10"/>
<path d="M426.44 218.005C425.198 227.326 411.073 225.439 412.316 216.117C413.558 206.727 427.705 208.614 426.44 218.005ZM432.513 165.966L426.969 205.116L415.076 203.528C416.824 190.363 418.297 177.543 420.068 164.286L432.513 165.943V165.966Z" fill="black"/>
<path d="M438.148 112.938C449.138 112.938 458.046 104.025 458.046 93.0294C458.046 82.0342 449.138 73.1208 438.148 73.1208C427.159 73.1208 418.25 82.0342 418.25 93.0294C418.25 104.025 427.159 112.938 438.148 112.938Z" fill="black"/>
<path d="M452.203 93.0294C452.203 100.809 445.9 107.115 438.125 107.115C430.35 107.115 424.047 100.809 424.047 93.0294C424.047 85.2501 430.35 78.9438 438.125 78.9438C445.9 78.9438 452.203 85.2501 452.203 93.0294Z" fill="black"/>
<path d="M516.176 3.03809V45.2489" stroke="black" stroke-width="2.65" stroke-miterlimit="10"/>
<path d="M478.336 3.03809V45.2489" stroke="black" stroke-width="2.65" stroke-miterlimit="10"/>
<path d="M553.855 3.03809V45.2489" stroke="black" stroke-width="2.65" stroke-miterlimit="10"/>
<path d="M595.746 3.03809V45.2489" stroke="black" stroke-width="2.65" stroke-miterlimit="10"/>
<path d="M634.832 3.03809V45.2489" stroke="black" stroke-width="2.65" stroke-miterlimit="10"/>
<path d="M675.34 3.03809V45.2489" stroke="black" stroke-width="2.65" stroke-miterlimit="10"/>
<path d="M715.137 3.03809V45.2489" stroke="black" stroke-width="2.65" stroke-miterlimit="10"/>
<path d="M476.379 45.2489L516.175 3.03809" stroke="black" stroke-width="2.65" stroke-miterlimit="10"/>
<path d="M516.176 45.2489L555.949 3.03809" stroke="black" stroke-width="2.65" stroke-miterlimit="10"/>
<path d="M555.949 45.2489L595.746 3.03809" stroke="black" stroke-width="2.65" stroke-miterlimit="10"/>
<path d="M595.746 45.2489L635.542 3.03809" stroke="black" stroke-width="2.65" stroke-miterlimit="10"/>
<path d="M635.543 45.2489L675.339 3.03809" stroke="black" stroke-width="2.65" stroke-miterlimit="10"/>
<path d="M675.34 45.2489L715.136 3.03809" stroke="black" stroke-width="2.65" stroke-miterlimit="10"/>
<path d="M438.148 45.2489H762.57L718.886 3.03809H471.711L438.148 45.2489Z" stroke="#727272" stroke-width="2.65" stroke-linecap="round" stroke-linejoin="round"/>
<path d="M438.148 45.2489V93.0295" stroke="#727272" stroke-width="2.65" stroke-linecap="round" stroke-linejoin="round"/>
<path d="M266.613 497.737L289.318 439.001C290.399 436.193 294.355 436.193 295.436 439.001L318.141 497.737H266.59H266.613Z" fill="#F5D100"/>
<mask id="mask3_3162_8599" style="mask-type:luminance" maskUnits="userSpaceOnUse" x="266" y="436" width="53" height="62">
<path d="M266.613 497.737L289.318 439.001C290.399 436.193 294.355 436.193 295.436 439.001L318.141 497.737H266.59H266.613Z" fill="white"/>
</mask>
<g mask="url(#mask3_3162_8599)">
<path d="M312.204 451.637H271.879V464.111H312.204V451.637Z" fill="#FAFAFA"/>
<path d="M315.288 475.205H269.672V487.679H315.288V475.205Z" fill="#FAFAFA"/>
</g>
<path d="M322.581 497.737H262.473V502.686H322.581V497.737Z" fill="#E8C400"/>
<path d="M596.394 497.921L619.099 439.185C620.18 436.377 624.137 436.377 625.218 439.185L647.922 497.921H596.371H596.394Z" fill="#F5D100"/>
<mask id="mask4_3162_8599" style="mask-type:luminance" maskUnits="userSpaceOnUse" x="596" y="437" width="52" height="61">
<path d="M596.394 497.921L619.099 439.185C620.18 436.377 624.137 436.377 625.218 439.185L647.922 497.921H596.371H596.394Z" fill="white"/>
</mask>
<g mask="url(#mask4_3162_8599)">
<path d="M641.986 451.821H601.66V464.295H641.986V451.821Z" fill="#FAFAFA"/>
<path d="M645.07 475.389H599.453V487.864H645.07V475.389Z" fill="#FAFAFA"/>
</g>
<path d="M652.339 497.921H592.23V502.87H652.339V497.921Z" fill="#E8C400"/>
<path d="M189.889 406.526C193.725 380.753 175.952 356.747 150.191 352.909C124.431 349.071 100.438 366.853 96.6022 392.627C92.766 418.401 110.539 442.406 136.3 446.244C162.06 450.082 186.053 432.3 189.889 406.526Z" fill="#727272"/>
<path d="M143.266 382.774V502.686" stroke="black" stroke-width="1.14" stroke-linecap="round" stroke-linejoin="round"/>
<path d="M124.934 385.214L143.268 405.79" stroke="black" stroke-width="1.14" stroke-linecap="round" stroke-linejoin="round"/>
<path d="M159.529 404.662C158.218 405.974 143.266 421.555 143.266 421.555" stroke="black" stroke-width="1.14" stroke-linecap="round" stroke-linejoin="round"/>
<path d="M1.3125 503.837H792.41" stroke="black" stroke-width="1.14" stroke-linecap="round" stroke-linejoin="round"/>
</g>
<defs>
<clipPath id="clip0_3162_8599">
<rect width="800" height="506" fill="white"/>
</clipPath>
</defs>
</svg>
