<svg width="50" height="50" viewBox="0 0 50 50" fill="none" xmlns="http://www.w3.org/2000/svg">
<path d="M12.6788 49.8226C10.7449 49.801 8.82909 49.4463 7.01562 48.774C5.69134 48.2845 4.4932 47.5052 3.50879 46.4932C2.49398 45.5107 1.71355 44.3123 1.22548 42.9868C0.553795 41.1734 0.199597 39.2578 0.17843 37.3241C0.0299017 34.1095 0 33.1453 0 24.9998C0 16.8542 0.0328428 15.8935 0.176959 12.6763C0.200695 10.7434 0.555329 8.82882 1.22548 7.01562C1.71593 5.69112 2.49525 4.4925 3.50683 3.50683C4.49002 2.49293 5.68872 1.71323 7.01415 1.22548C8.82762 0.553238 10.7434 0.198541 12.6773 0.176959C15.893 0.0299017 16.8587 0 24.9998 0C33.1409 0 34.106 0.0328428 37.3232 0.176959C39.2566 0.200528 41.1717 0.555164 42.9854 1.22548C44.3102 1.71387 45.5086 2.4933 46.4922 3.50634C47.5055 4.49027 48.2853 5.68896 48.774 7.01415C49.4464 8.82759 49.8013 10.7434 49.823 12.6773C49.9701 15.8945 50 16.8577 50 25.0007C50 33.1438 49.9701 34.107 49.823 37.3241C49.7997 39.2578 49.4449 41.1731 48.774 42.9868C48.2666 44.3021 47.4894 45.4965 46.4924 46.4933C45.4954 47.49 44.3008 48.2669 42.9854 48.774C41.1719 49.4464 39.2562 49.8013 37.3222 49.823C34.108 49.9701 33.1418 50 24.9988 50C16.8557 50 15.8925 49.9716 12.6783 49.823" fill="url(#paint0_radial_1754_4430)"/>
<path d="M12.6788 49.8226C10.7449 49.801 8.82909 49.4463 7.01562 48.774C5.69134 48.2845 4.4932 47.5052 3.50879 46.4932C2.49398 45.5107 1.71355 44.3123 1.22548 42.9868C0.553795 41.1734 0.199597 39.2578 0.17843 37.3241C0.0299017 34.1095 0 33.1453 0 24.9998C0 16.8542 0.0328428 15.8935 0.176959 12.6763C0.200695 10.7434 0.555329 8.82882 1.22548 7.01562C1.71593 5.69112 2.49525 4.4925 3.50683 3.50683C4.49002 2.49293 5.68872 1.71323 7.01415 1.22548C8.82762 0.553238 10.7434 0.198541 12.6773 0.176959C15.893 0.0299017 16.8587 0 24.9998 0C33.1409 0 34.106 0.0328428 37.3232 0.176959C39.2566 0.200528 41.1717 0.555164 42.9854 1.22548C44.3102 1.71387 45.5086 2.4933 46.4922 3.50634C47.5055 4.49027 48.2853 5.68896 48.774 7.01415C49.4464 8.82759 49.8013 10.7434 49.823 12.6773C49.9701 15.8945 50 16.8577 50 25.0007C50 33.1438 49.9701 34.107 49.823 37.3241C49.7997 39.2578 49.4449 41.1731 48.774 42.9868C48.2666 44.3021 47.4894 45.4965 46.4924 46.4933C45.4954 47.49 44.3008 48.2669 42.9854 48.774C41.1719 49.4464 39.2562 49.8013 37.3222 49.823C34.108 49.9701 33.1418 50 24.9988 50C16.8557 50 15.8925 49.9716 12.6783 49.823" fill="url(#paint1_radial_1754_4430)"/>
<path d="M18.861 25.1061C18.8611 23.8815 19.2243 22.6844 19.9048 21.6662C20.5852 20.6481 21.5523 19.8545 22.6837 19.386C23.8152 18.9175 25.0601 18.795 26.2612 19.034C27.4622 19.2731 28.5654 19.8629 29.4312 20.7289C30.2971 21.595 30.8866 22.6983 31.1254 23.8994C31.3641 25.1005 31.2414 26.3455 30.7726 27.4768C30.3038 28.6081 29.51 29.575 28.4917 30.2552C27.4734 30.9354 26.2762 31.2984 25.0516 31.2982C23.4096 31.2979 21.8349 30.6454 20.674 29.4842C19.513 28.3229 18.8609 26.7481 18.861 25.1061ZM15.5135 25.1061C15.5135 26.9925 16.0729 28.8366 17.1209 30.4052C18.169 31.9737 19.6587 33.1962 21.4015 33.9182C23.1444 34.6401 25.0622 34.829 26.9124 34.4609C28.7626 34.0929 30.4622 33.1845 31.7961 31.8505C33.13 30.5166 34.0385 28.8171 34.4065 26.9669C34.7745 25.1166 34.5856 23.1988 33.8637 21.456C33.1418 19.7131 31.9193 18.2234 30.3507 17.1754C28.7822 16.1273 26.9381 15.5679 25.0516 15.5679C23.799 15.5679 22.5587 15.8145 21.4015 16.2938C20.2442 16.7732 19.1927 17.4757 18.307 18.3614C17.4213 19.2471 16.7187 20.2986 16.2394 21.4559C15.7601 22.6131 15.5134 23.8535 15.5135 25.1061ZM32.7383 15.19C32.7381 15.6308 32.8687 16.0618 33.1134 16.4285C33.3582 16.7951 33.7061 17.0809 34.1133 17.2498C34.5205 17.4187 34.9687 17.463 35.4011 17.3772C35.8335 17.2914 36.2307 17.0793 36.5426 16.7677C36.8544 16.4561 37.0669 16.0591 37.1531 15.6268C37.2393 15.1944 37.1953 14.7463 37.0268 14.3389C36.8583 13.9316 36.5728 13.5833 36.2063 13.3383C35.8399 13.0932 35.409 12.9623 34.9682 12.9621C34.3773 12.9623 33.8107 13.1971 33.3927 13.6148C32.9748 14.0326 32.7398 14.5991 32.7393 15.19M17.5483 40.226C16.3704 40.2131 15.2035 39.9975 14.0988 39.5888C13.2976 39.28 12.57 38.8068 11.9627 38.1998C11.3554 37.5928 10.882 36.8653 10.5728 36.0643C10.1639 34.9596 9.94835 33.7927 9.9356 32.6148C9.8454 30.657 9.82775 30.0688 9.82775 25.1085C9.82775 20.1483 9.84736 19.5615 9.9356 17.6017C9.94989 16.424 10.1654 15.2574 10.5728 14.1522C10.8816 13.3508 11.3549 12.623 11.9622 12.0157C12.5695 11.4084 13.2974 10.9351 14.0988 10.6263C15.2035 10.2174 16.3704 10.0018 17.5483 9.98906C19.5061 9.89886 20.0943 9.88121 25.0526 9.88121C30.0109 9.88121 30.5996 9.90034 32.5594 9.98955C33.7371 10.0038 34.9038 10.2194 36.0089 10.6268C36.8103 10.9356 37.5381 11.4089 38.1454 12.0162C38.7527 12.6235 39.226 13.3513 39.5348 14.1527C39.9437 15.2574 40.1593 16.4243 40.1721 17.6022C40.2623 19.563 40.2799 20.1483 40.2799 25.109C40.2799 30.0697 40.2618 30.656 40.1721 32.6158C40.1583 33.7936 39.9428 34.9603 39.5348 36.0653C39.2257 36.8663 38.7522 37.5938 38.145 38.2008C37.5377 38.8078 36.81 39.2809 36.0089 39.5897C34.9042 39.9987 33.7373 40.2142 32.5594 40.227C30.6016 40.3172 30.0133 40.3348 25.0526 40.3348C20.0919 40.3348 19.5056 40.3167 17.5483 40.227M17.3943 6.64448C15.8531 6.67479 14.3282 6.9665 12.8846 7.50721C11.6505 7.98435 10.5298 8.7141 9.59424 9.64966C8.65868 10.5852 7.92893 11.7059 7.45179 12.94C6.91115 14.3836 6.61944 15.9085 6.58906 17.4498C6.4974 19.4301 6.47681 20.0635 6.47681 25.108C6.47681 30.1526 6.49789 30.7854 6.58906 32.7663C6.61943 34.3075 6.91114 35.8324 7.45179 37.276C7.92895 38.5101 8.65871 39.6308 9.59427 40.5664C10.5298 41.5019 11.6505 42.2317 12.8846 42.7088C14.3283 43.2493 15.8531 43.541 17.3943 43.5716C19.3757 43.6618 20.008 43.6838 25.0526 43.6838C30.0972 43.6838 30.73 43.6628 32.7109 43.5716C34.2521 43.5411 35.777 43.2494 37.2206 42.7088C38.4547 42.2317 39.5754 41.5019 40.5109 40.5664C41.4465 39.6308 42.1762 38.5101 42.6534 37.276C43.1948 35.8326 43.4865 34.3076 43.5162 32.7663C43.6063 30.7844 43.6269 30.1526 43.6269 25.108C43.6269 20.0635 43.6059 19.4306 43.5162 17.4498C43.4858 15.9085 43.1941 14.3836 42.6534 12.94C42.1763 11.7062 41.4467 10.5856 40.5114 9.65009C39.5761 8.71456 38.4558 7.98468 37.2221 7.50721C35.7786 6.96615 34.2536 6.67443 32.7123 6.64448C30.7315 6.5538 30.0986 6.53223 25.0551 6.53223C20.0115 6.53223 19.3772 6.55331 17.3953 6.64448" fill="white"/>
<defs>
<radialGradient id="paint0_radial_1754_4430" cx="0" cy="0" r="1" gradientUnits="userSpaceOnUse" gradientTransform="translate(3.23575 48.9044) scale(63.4808)">
<stop offset="0.09" stop-color="#FA8F21"/>
<stop offset="0.78" stop-color="#D82D7E"/>
</radialGradient>
<radialGradient id="paint1_radial_1754_4430" cx="0" cy="0" r="1" gradientUnits="userSpaceOnUse" gradientTransform="translate(34.633 47.2986) scale(55.8637)">
<stop offset="0.64" stop-color="#8C3AAA" stop-opacity="0"/>
<stop offset="1" stop-color="#8C3AAA"/>
</radialGradient>
</defs>
</svg>
