<svg width="30" height="30" viewBox="0 0 30 30" fill="none" xmlns="http://www.w3.org/2000/svg">
<rect x="0.5" y="0.5" width="29" height="29" rx="14.5" stroke="black"/>
<g clip-path="url(#clip0_2013_7768)">
<path d="M20.9468 10.9148C20.9906 10.8757 21.0108 10.8663 21.0121 10.8552C21.0948 10.1288 21.5189 9.7658 22.2845 9.76614C23.7027 9.77029 23.4911 9.64364 23.5077 10.9764C23.5106 11.2012 23.5318 11.4291 23.5041 11.6506C23.3596 12.8062 23.6059 13.8268 24.4647 14.6662C24.5673 14.7665 24.6444 15.0016 24.5957 15.1156C24.5512 15.22 24.3241 15.2816 24.171 15.2964C23.8838 15.3241 23.5919 15.3044 23.2744 15.3044V20.2433C23.5256 20.2843 23.782 20.3006 24.0236 20.3695C25.0391 20.6585 25.3315 21.8498 24.5698 22.5843C24.4217 22.7273 24.2616 22.8811 24.0772 22.9599C22.4003 23.6744 20.7412 24.4416 19.0262 25.0515C17.9646 25.4288 16.8488 25.2209 15.7774 24.8352C14.2387 24.2815 12.6843 23.7718 11.1106 23.2344C11.048 24.0417 11.0221 24.0469 10.3197 24.1243C8.98096 24.2719 7.64379 24.4333 6.3087 24.6104C5.91711 24.6625 5.71276 24.5444 5.66718 24.1494C5.453 22.2969 5.24814 20.443 5.01116 18.5933C4.95107 18.1243 5.13988 17.9689 5.55737 17.9259C6.94892 17.7821 8.33918 17.6252 9.73048 17.4812C9.8794 17.4659 10.1278 17.4486 10.1697 17.5229C10.4098 17.9471 10.704 17.7446 11.0024 17.6464C11.8182 17.3779 12.647 17.2699 13.5459 17.4965V15.3041C13.2175 15.3041 12.9057 15.3233 12.5985 15.2951C12.4659 15.2829 12.2727 15.1995 12.2339 15.099C12.1932 14.9939 12.2647 14.7908 12.3559 14.6981C12.8272 14.2187 13.3203 13.7608 13.8647 13.2392C12.7586 12.5086 12.1393 11.5306 11.9161 10.395C11.4093 10.6695 10.926 10.928 10.4474 11.1947C10.3945 11.2243 10.3388 11.2988 10.3342 11.3566C10.2935 11.8621 10.0459 12.138 9.52225 12.1779C9.44481 12.1838 9.33319 12.3757 9.32101 12.4905C9.27543 12.9165 9.03354 13.1164 8.63417 13.0993C8.26848 13.0838 8.14753 13.2791 8.10765 13.5847C8.03073 14.1765 7.69119 14.3477 7.11028 14.3469C5.7656 14.3456 5.95078 14.4287 5.93938 13.1998C5.93446 12.6759 6.08649 12.3032 6.46953 11.9373C7.60728 10.8503 8.71109 9.72729 9.80688 8.59784C9.94233 8.45798 10.0257 8.18604 10.0045 7.98921C9.86774 6.71342 10.3585 5.65208 11.3867 5.09111C12.4431 4.5146 13.5749 4.67465 14.6062 5.51948C14.7274 5.61893 14.9458 5.67202 15.1022 5.64587C17.8876 5.1758 20.0595 6.97708 20.0626 9.77391C20.063 10.0383 20.3578 10.4187 20.9471 10.9153L20.9468 10.9148ZM15.039 13.0025C15.458 13.0421 15.7994 13.1087 16.1387 13.0988C16.6683 13.0835 17.2396 13.0734 17.1814 12.2815C17.177 12.2201 17.2264 12.153 17.2565 12.0911C17.5851 11.4151 18.4123 11.1411 19.0642 11.4913C19.7241 11.8461 19.9689 12.6865 19.5972 13.321C19.2168 13.9706 18.402 14.1677 17.7486 13.7929C17.5784 13.6953 17.3381 13.5951 17.1692 13.6409C16.3601 13.8597 15.5681 13.8522 14.7676 13.6168C14.6365 13.5782 14.4304 13.5565 14.3496 13.6285C14.0098 13.9315 13.7042 14.2731 13.3509 14.6367C13.958 14.7011 14.2615 15.0165 14.2615 15.5828C14.2615 16.2401 14.254 16.8974 14.2677 17.5545C14.2706 17.6941 14.3094 17.8987 14.4045 17.9598C14.8893 18.2711 15.3982 18.5451 15.9882 18.8834C15.9882 18.1699 15.9934 17.5695 15.9861 16.9692C15.9822 16.6392 16.0845 16.4494 16.4598 16.4522C17.7745 16.4626 19.0891 16.4608 20.4035 16.4533C20.765 16.4512 20.8945 16.6242 20.8911 16.9637C20.8842 17.6729 20.8893 18.382 20.8893 19.0913C20.8893 19.636 20.8893 20.1809 20.8893 20.7592C21.4949 20.6101 22.0266 20.479 22.615 20.3337C22.615 20.1488 22.615 19.9628 22.615 19.7769C22.615 18.4796 22.615 17.1823 22.615 15.885C22.615 15.1575 22.9601 14.7354 23.6504 14.6188C23.5665 14.4956 23.5064 14.3715 23.4147 14.2788C22.9706 13.8289 22.8437 13.2964 22.882 12.6725C22.9271 11.9375 22.8926 11.1976 22.8926 10.4488H21.7287C21.7287 10.7705 21.7525 11.0637 21.7212 11.3509C21.695 11.5902 21.6041 11.8223 21.542 12.0577C21.3247 11.9515 21.0693 11.8875 20.8968 11.7316C20.0777 10.9914 19.281 10.2264 18.5822 9.56983C17.4046 10.7102 16.2573 11.8215 15.038 13.0022L15.039 13.0025ZM17.7812 24.657C17.7895 24.6324 17.7978 24.6081 17.8061 24.5835C18.1148 24.5529 18.4504 24.5902 18.7278 24.4807C20.3908 23.8244 22.0408 23.1347 23.6942 22.4538C23.7569 22.4279 23.81 22.379 23.8669 22.3399C24.2036 22.1099 24.4424 21.8255 24.3168 21.386C24.1946 20.9584 23.8069 20.924 23.4733 20.9361C22.1439 20.9851 20.8627 21.2946 19.7392 22.0091C18.7275 22.6525 17.7633 22.7037 16.7118 22.1676C16.1472 21.8799 15.5381 21.6807 14.9642 21.409C14.8088 21.3355 14.7093 21.1441 14.5842 21.0068C14.764 20.9309 14.9792 20.7504 15.117 20.7973C15.7326 21.0074 16.3441 21.2464 16.9226 21.5422C17.7063 21.9426 18.4556 22.0216 19.2269 21.537C19.5201 21.3528 19.5255 21.1436 19.2611 20.9794C18.898 20.7541 18.5183 20.5194 18.1127 20.4055C16.7509 20.0229 15.4718 19.4431 14.3278 18.6412C13.1963 17.8479 12.0837 17.9135 10.8887 18.3429C10.6064 18.4444 10.4663 18.569 10.5103 18.902C10.6618 20.0488 10.7758 21.2006 10.9327 22.3466C10.9501 22.4738 11.1316 22.6341 11.2702 22.6807C12.821 23.2028 14.3742 23.7185 15.9359 24.2067C16.5388 24.3952 17.1653 24.5086 17.7809 24.6563L17.7812 24.657ZM10.4212 23.4393C10.2055 21.6217 9.99698 19.8665 9.78538 18.0841C8.37751 18.2569 7.03361 18.4219 5.65838 18.5907C5.87282 20.4117 6.07949 22.1661 6.28902 23.9469C7.69896 23.7736 9.0439 23.6084 10.4209 23.4393H10.4212ZM12.5866 10.3517C12.8233 11.4245 13.4014 12.1843 14.3806 12.7342C14.4511 12.635 14.5013 12.5397 14.5736 12.4661C15.7238 11.2947 16.8859 10.1347 18.0233 8.9511C18.3362 8.62555 18.5747 8.60094 18.8726 8.94022C19.0225 9.11116 19.2106 9.24842 19.4361 9.44991C19.3186 7.29538 17.2295 5.78469 15.2428 6.31303C15.9563 8.05422 15.1255 10.1132 12.5866 10.352V10.3517ZM7.38377 13.6331C7.45965 13.3804 7.56221 13.1405 7.59873 12.8909C7.64613 12.5669 7.84011 12.4267 8.12396 12.4366C8.52876 12.4506 8.7085 12.2664 8.75927 11.8857C8.82479 11.3921 9.33889 11.6013 9.56084 11.391C9.80066 11.1637 9.6318 10.605 10.126 10.5584C10.6424 10.5094 10.9718 10.2031 11.2756 9.84617C11.5372 9.53875 11.806 9.45328 12.2269 9.55247C13.0805 9.75371 13.85 9.52813 14.3939 8.80192C14.9315 8.084 14.9333 7.30781 14.4728 6.4951C14.3459 6.63987 14.2328 6.80847 14.2431 6.96931C14.2802 7.55203 14.0142 8.06173 13.5123 8.27669C13.05 8.47482 12.4851 8.33574 12.1482 7.94078C11.8115 7.54608 11.7734 6.98018 12.0547 6.5456C12.3626 6.06957 12.8681 5.91159 13.4592 6.06698C13.6459 6.11593 13.8562 6.07475 14.0556 6.07475C13.3403 5.32627 12.3649 5.24158 11.6014 5.70906C10.8213 6.18664 10.4178 7.14361 10.6828 8.04437C10.7942 8.42276 10.7017 8.64653 10.4388 8.90422C9.29045 10.0293 8.17887 11.1921 7.01393 12.2996C6.59411 12.6987 6.50242 13.1071 6.62389 13.6334H7.38403L7.38377 13.6331ZM16.6398 17.1287C16.6398 17.6938 16.6647 18.2126 16.6315 18.7277C16.6077 19.1004 16.7429 19.2584 17.0907 19.3923C18.1728 19.8082 19.4211 19.91 20.1753 21.0382V17.1287H16.6398ZM18.4336 13.3394C18.8006 13.3469 19.136 13.0266 19.1375 12.6673C19.1391 12.3154 18.7928 11.9613 18.4385 11.9875C18.0492 12.0165 17.8058 12.2297 17.7817 12.6368C17.7587 13.0253 18.0498 13.3317 18.4336 13.3394ZM13.1805 6.59351C13.0994 6.5917 13.0184 6.58989 12.9373 6.58807C12.792 6.80019 12.5271 7.01826 12.5374 7.22286C12.5465 7.40363 12.8384 7.66987 13.0471 7.71856C13.3872 7.79756 13.6195 7.52018 13.5742 7.19618C13.5441 6.98122 13.3185 6.79345 13.1805 6.59377V6.59351Z" fill="black"/>
</g>
<defs>
<clipPath id="clip0_2013_7768">
<rect width="20" height="20.5009" fill="white" transform="translate(5 4.74951)"/>
</clipPath>
</defs>
</svg>
