<svg xmlns="http://www.w3.org/2000/svg" xmlns:xlink="http://www.w3.org/1999/xlink" xml:space="preserve" version="1.1" style="shape-rendering:geometricPrecision; text-rendering:geometricPrecision; image-rendering:optimizeQuality; fill-rule:evenodd; clip-rule:evenodd" viewBox="10174.16 21059.58 30451.69 8680.84">
 <defs fill="#ffffff">
  <style type="text/css">
   <![CDATA[
    .fil0 {fill:#ffffff;fill-rule:nonzero}
   ]]>
  </style>
 </defs>
 <g id="Layer_x0020_1">
  <metadata id="CorelCorpID_0Corel-Layer" fill="#ffffff"/>
  <path class="fil0" d="M34566.91 26768.09l0 -5655.82 4792.56 0c445.08,0 767.03,85.08 966.17,256.79 200.67,172.17 300.15,448.8 300.15,830.64l0 1250.1c0,374.43 -99.48,649.48 -300.15,821.45 -199.14,173.69 -521.18,260.49 -966.17,260.49l-3509.89 0 0 2236.35 -1282.67 0zm-24143.98 2378.67l0 400.92 763.65 0c56.62,0 95.86,-10.81 117.7,-32.69 21.87,-21.62 32.6,-60.59 32.6,-115.88l0 -103.66c0,-54.49 -11.3,-93.31 -33.69,-115.59 -22.15,-22.36 -61.13,-33.1 -116.61,-33.1l-763.65 0zm28864.04 593.66l0 -1317.54 1326.91 0 0 195.78 -1078.12 0 0 338.49 649.7 0 0 195.71 -649.7 0 0 394.82 1090.03 0 0 192.74 -1338.82 0zm-634.42 -1121.76l-920.23 0 0 922.77 920.23 0 0 -313.99 248.71 47.12 0 154.57c0,120.59 -22.39,202.49 -67.43,245.95 -45.08,43.6 -130.54,65.34 -255.89,65.34l-774.1 0c-125.26,0 -210.28,-21.23 -254.32,-63.16 -44.08,-41.94 -65.73,-124.32 -65.73,-248.13l0 -693.31c0,-122.74 22.2,-205.16 66.68,-248.12 44.54,-43.06 128.94,-64.82 253.37,-64.82l774.1 0c125.35,0 210.81,21.76 255.89,65.7 45.04,44.13 67.43,126.52 67.43,247.24l0 124.36 -248.71 40.94 0 -282.46zm-2914.23 68.43c6.18,38.38 10.34,77.23 13.44,116.67 3.19,39.85 4.7,79.13 4.7,118.63l0 818.03 -229.05 0 0 -1317.54 189.71 0 966.74 860.68c28.42,24.14 55.52,51.2 81.35,80.24 25.84,29.47 51.28,63.19 76.66,100.47 -7.03,-39.41 -12.37,-79.77 -16.02,-120.1 -3.61,-40.6 -5.27,-82.44 -5.27,-125.92l0 -795.37 229.08 0 0 1317.54 -169.92 0 -986.45 -872.99c-34.7,-32.23 -64.37,-62.66 -89.08,-91.81 -24.91,-29.05 -46.73,-58.45 -65.89,-88.53zm-1872.72 1053.33l0 -1317.54 1326.88 0 0 195.78 -1078.31 0 0 338.49 649.77 0 0 195.71 -649.77 0 0 394.82 1090.27 0 0 192.74 -1338.84 0zm-1519.53 0l0 -1317.54 248.66 0 0 1118.55 1024.85 0 0 198.99 -1273.51 0zm-1519.38 0l0 -1317.54 248.6 0 0 1118.55 1024.89 0 0 198.99 -1273.49 0zm-1661.98 0l0 -1317.54 1326.8 0 0 195.78 -1078.06 0 0 338.49 649.71 0 0 195.71 -649.71 0 0 394.82 1090.09 0 0 192.74 -1338.83 0zm-634.54 -1121.76l-920.05 0 0 922.77 920.05 0 0 -313.99 248.82 47.12 0 154.57c0,120.59 -22.43,202.49 -67.45,245.95 -45.1,43.6 -130.53,65.34 -255.92,65.34l-773.99 0c-125.42,0 -210.35,-21.23 -254.44,-63.16 -44.04,-41.94 -65.71,-124.32 -65.71,-248.13l0 -693.31c0,-122.74 22.25,-205.16 66.63,-248.12 44.63,-43.06 129.03,-64.82 253.52,-64.82l773.99 0c125.39,0 210.82,21.76 255.92,65.7 45.02,44.13 67.45,126.52 67.45,247.24l0 124.36 -248.82 40.94 0 -282.46zm-3037.5 1121.76l661.74 -674.07 -672.12 -643.47 336.85 0 475.08 478.24 435.63 -478.24 306.34 0 -605.74 611.89 740.98 705.65 -349.24 0 -531.15 -534.2 -478.17 534.2 -320.2 0zm-1459.93 0l0 -1317.54 1327.02 0 0 195.78 -1078.23 0 0 338.49 649.76 0 0 195.71 -649.76 0 0 394.82 1090.11 0 0 192.74 -1338.9 0zm-1818.33 -1121.76l-1041.92 0 0 922.77 1041.92 0 0 -357.96 -537.74 0 0 -179.23 786.56 0 0 424.89c0,120.59 -22.37,202.49 -67.35,245.95 -45.09,43.6 -130.64,65.34 -256.02,65.34l-892.8 0c-125.32,0 -210.87,-21.74 -255.85,-64.77 -45.15,-42.82 -67.24,-124.85 -67.24,-246.52l0 -693.31c0,-120.72 22.63,-203.11 68.36,-247.24 45.59,-43.94 130.42,-65.7 254.73,-65.7l892.8 0c122.81,0 207.23,21.76 253.34,65.38 46.65,43.41 70.03,120.07 70.03,229.44l0 37.76 -248.82 42.52 0 -179.32zm-3035.84 68.43c6.16,38.38 10.34,77.23 13.53,116.67 3.08,39.85 4.49,79.13 4.49,118.63l0 818.03 -229.02 0 0 -1317.54 189.76 0 966.7 860.68c28.55,24.14 55.46,51.2 81.29,80.24 25.95,29.47 51.3,63.19 76.8,100.47 -7.27,-39.41 -12.51,-79.77 -16.07,-120.1 -3.59,-40.6 -5.26,-82.44 -5.26,-125.92l0 -795.37 229.1 0 0 1317.54 -169.92 0 -986.57 -872.99c-34.65,-32.23 -64.26,-62.66 -89.12,-91.81 -24.81,-29.05 -46.62,-58.45 -65.71,-88.53zm-670.8 1053.33l-247.76 0 0 -1314.4 247.76 0 0 1314.4zm-1530.36 -1121.76l-482.84 0 0 922.77 482.84 0c214.51,0 367.32,-36.23 458.07,-108.18 90.65,-72.57 135.7,-191.81 135.7,-357.55 0,-162.29 -45.62,-278.73 -137.35,-349.66 -91.66,-71.5 -243.93,-107.38 -456.42,-107.38zm27.33 -195.78c125.52,0 231.18,8.28 316.71,24.73 85.4,17.13 155.93,42.62 211.26,76.8 90.23,57.06 160.7,134.11 211.44,231.65 50.21,97.82 75.58,205.05 75.58,322.79 0,221.27 -67.21,387 -202.06,496.75 -134.06,109.91 -338.66,164.82 -612.93,164.82l-758.94 0 0 -1317.54 758.94 0zm-2379.97 1317.54l0 -1317.54 248.83 0 0 1118.55 1024.76 0 0 198.99 -1273.59 0zm-459.93 0l-247.65 0 0 -1314.4 247.65 0 0 1314.4zm-1921.97 -1317.54l0 1118.55 962.75 0 0 -1118.55 251.8 0 0 1006.25c0,121.67 -22.27,203.7 -67.4,246.52 -45.09,43.03 -130.66,64.77 -256.01,64.77l-816.56 0c-125.42,0 -210.9,-21.74 -255.9,-65.34 -45.07,-43.46 -67.46,-125.36 -67.46,-245.95l0 -1006.25 248.78 0zm-915.28 424.89l0 -124.32c0,-40.43 -10.43,-68.44 -30.65,-84.54 -20.09,-15.53 -56.92,-23.23 -110.36,-23.23l-763.65 0 0 338.29 763.65 0c57.57,0 95.34,-7.78 113.53,-22.86 18.12,-14.96 27.48,-42.95 27.48,-83.34zm-1153.43 892.65l0 -1317.54 1112.46 0c101.02,0 174.66,20.76 220.19,61.74 45.65,40.94 68.38,106.14 68.38,196.34l0 151.73c0,69.48 -18.18,122.25 -54.34,158.67 -36.77,35.57 -94.83,58.44 -174.75,67.24 77.85,8.35 136.89,34.22 177.72,78.26 40.45,44.09 60.68,103.08 60.68,176.65l0 168.91c0,87.04 -31.52,151.68 -94.26,194.24 -62.63,42.53 -158.55,63.76 -287,63.76l-1029.08 0zm1150.71 -4689.37l-1150.71 0 0 238.85 0 153.83c0,508.31 95.84,855.81 285.94,1043.88 191.75,186.41 562.49,280.48 1112.74,280.48l3236.53 0c542.86,0 911.92,-94.07 1107.29,-284.01 193.5,-188.24 291.45,-535.6 291.45,-1042.28l0 -819.55c0,-510.33 -96,-857.59 -289.41,-1045.85 -192.01,-186.35 -562.9,-280.41 -1109.33,-280.41l-3493.54 0 0 -1255.75 3743.27 0 0 636.81 1150.72 0 0 -387.05c0,-459.67 -101.27,-779.82 -302.03,-960.71 -200.91,-179.21 -564.7,-269.71 -1087.29,-269.71l-3255.04 0c-540.58,0 -908.34,94.17 -1099.99,284 -193.68,188.14 -289.5,535.81 -289.5,1042.25l0 671.31c0,509.95 95.82,857.56 285.87,1045.75 191.87,186.24 559.02,280.45 1103.62,280.45l3491.8 0 0 1329.92 -3732.39 0 0 -662.21zm6271.31 1717.04l0 -5708.51 1304.51 0 0 2225.67 4068.97 0 0 -2225.67 1315.33 0 0 5708.51 -1315.33 0 0 -2464.31 -4068.97 0 0 2464.31 -1304.51 0zm8076.81 0l0 -5708.51 1304.5 0 0 5708.51 -1304.5 0zm2692.62 0l0 -5708.51 1304.42 0 0 4653.68 3508.7 0 0 1054.83 -4813.12 0zm10416.56 -4686.16l-2932.59 0 0 1485.37 2932.59 0c222.59,0 376.44,-32.53 461.46,-95.82 85.02,-63.28 126.57,-179.12 126.57,-349.13l0 -600.66c0,-155.66 -41.55,-267.85 -126.57,-336.58 -85.07,-68.8 -238.95,-103.18 -461.46,-103.18zm1542.26 4135.04c-25.71,28.63 -64.12,46.58 -115.33,54.08 25.47,14.85 46.43,31.21 62.92,49.04 16.62,17.83 38.95,49.54 67.01,95.01l71.34 114.13 -141.2 0 -84.72 -127.71c-30.37,-45.35 -51.2,-73.97 -62.48,-85.81 -11.17,-11.72 -23.01,-19.86 -35.54,-24.25 -12.65,-4.31 -32.55,-6.5 -59.8,-6.5l-23.94 0 0 244.27 -118.48 0 0 -584.97 248.78 0c62.51,0 107.99,5.3 136.31,15.77 28.45,10.49 51.08,29.15 68.05,55.98 17.06,26.94 25.62,57.6 25.62,92.18 0,43.98 -12.8,80.21 -38.54,108.78zm-225.66 -503.68c-291.72,0 -527.73,240.77 -527.73,527.68 0,291.57 241.31,527.12 527.73,527.12 291.39,0 527.08,-240.5 527.08,-527.12 0,-290.53 -236.2,-527.68 -527.08,-527.68zm-8.64 478.52c56.62,0 91.87,-2.45 106.04,-7.21 14.02,-4.76 25.21,-13.07 33.1,-24.81 8.05,-11.72 11.97,-26.41 11.97,-43.96 0,-19.74 -5.31,-35.55 -15.8,-47.81 -10.49,-12.13 -25.31,-19.73 -44.4,-22.88 -9.64,-1.36 -38.36,-2.04 -86.16,-2.04l-92.19 0 0 148.71 87.44 0z" fill="#ffffff"/>
 </g>
</svg>