<svg width="40" height="40" viewBox="0 0 40 40" fill="none" xmlns="http://www.w3.org/2000/svg">
<path d="M19.9997 15C20.2207 15 20.4327 14.9122 20.5889 14.7559C20.7452 14.5996 20.833 14.3877 20.833 14.1667C20.833 13.9457 20.7452 13.7337 20.5889 13.5774C20.4327 13.4211 20.2207 13.3333 19.9997 13.3333C18.6811 13.3333 17.3922 13.7243 16.2959 14.4569C15.1995 15.1894 14.3451 16.2306 13.8405 17.4488C13.3359 18.667 13.2039 20.0074 13.4611 21.3006C13.7183 22.5938 14.3533 23.7817 15.2856 24.714C16.218 25.6464 17.4059 26.2813 18.6991 26.5386C19.9923 26.7958 21.3327 26.6638 22.5509 26.1592C23.7691 25.6546 24.8103 24.8001 25.5428 23.7038C26.2754 22.6075 26.6663 21.3185 26.6663 20C26.6663 19.779 26.5785 19.567 26.4223 19.4107C26.266 19.2545 26.054 19.1667 25.833 19.1667C25.612 19.1667 25.4 19.2545 25.2438 19.4107C25.0875 19.567 24.9997 19.779 24.9997 20C24.9997 20.9889 24.7064 21.9556 24.157 22.7779C23.6076 23.6001 22.8267 24.241 21.9131 24.6194C20.9995 24.9978 19.9941 25.0969 19.0242 24.9039C18.0543 24.711 17.1634 24.2348 16.4641 23.5355C15.7649 22.8363 15.2887 21.9454 15.0958 20.9755C14.9028 20.0055 15.0018 19.0002 15.3803 18.0866C15.7587 17.173 16.3996 16.3921 17.2218 15.8427C18.0441 15.2932 19.0108 15 19.9997 15Z" fill="black"/>
<path d="M35.9002 15.0504C35.8315 14.8427 35.6838 14.6702 35.4891 14.5703C35.2944 14.4704 35.0682 14.4511 34.8594 14.5165C34.6505 14.5818 34.4757 14.7266 34.3727 14.9197C34.2696 15.1128 34.2466 15.3386 34.3085 15.5485C35.3183 18.7639 35.2204 22.2251 34.0305 25.3783C32.8406 28.5316 30.6275 31.1946 27.7452 32.9413C24.8629 34.688 21.4781 35.4176 18.1321 35.0132C14.7862 34.6088 11.6727 33.0938 9.28953 30.7107C6.9064 28.3276 5.39145 25.214 4.98706 21.8681C4.58266 18.5222 5.31219 15.1373 7.05892 12.255C8.80566 9.37275 11.4687 7.15963 14.6219 5.96973C17.7751 4.77983 21.2363 4.68192 24.4517 5.69167C24.662 5.75507 24.8888 5.73295 25.0829 5.63011C25.277 5.52728 25.4227 5.35203 25.4883 5.14243C25.554 4.93283 25.5343 4.70579 25.4335 4.51061C25.3328 4.31544 25.1591 4.16789 24.9502 4.1C21.3802 2.97994 17.5376 3.08952 14.0372 4.41123C10.5367 5.73293 7.5807 8.19039 5.64188 11.3905C3.70306 14.5907 2.89347 18.3486 3.34263 22.0632C3.79178 25.7777 5.47372 29.2344 8.11941 31.8802C10.7651 34.526 14.2217 36.208 17.9362 36.6573C21.6508 37.1066 25.4088 36.2972 28.609 34.3585C31.8092 32.4198 34.2667 29.4638 35.5886 25.9635C36.9104 22.4631 37.0201 18.6205 35.9002 15.0504Z" fill="black"/>
<path d="M21.5866 9.28225C21.5887 9.05359 21.5038 8.83268 21.349 8.66432C21.1943 8.49597 20.9813 8.39277 20.7533 8.37567C20.5043 8.3545 20.2552 8.33334 19.9997 8.33334C17.6922 8.33334 15.4366 9.01757 13.518 10.2995C11.5995 11.5815 10.1041 13.4036 9.22109 15.5354C8.33806 17.6672 8.10702 20.0129 8.55718 22.2761C9.00735 24.5392 10.1185 26.618 11.7501 28.2496C13.3817 29.8812 15.4605 30.9923 17.7236 31.4425C19.9867 31.8927 22.3325 31.6616 24.4643 30.7786C26.5961 29.8956 28.4182 28.4002 29.7002 26.4817C30.9821 24.5631 31.6663 22.3075 31.6663 20C31.6664 19.6986 31.6479 19.3975 31.611 19.0983C31.5949 18.9874 31.5566 18.8808 31.4984 18.785C31.4403 18.6891 31.3635 18.6059 31.2726 18.5403C31.1817 18.4747 31.0785 18.428 30.9692 18.403C30.8599 18.3781 30.7467 18.3753 30.6363 18.3949C30.5259 18.4146 30.4206 18.4562 30.3266 18.5173C30.2326 18.5784 30.1519 18.6578 30.0891 18.7507C30.0264 18.8437 29.983 18.9482 29.9615 19.0583C29.94 19.1683 29.9408 19.2815 29.9638 19.3913C29.9818 19.5931 29.9997 19.7933 29.9997 19.9996C29.9998 21.9774 29.4133 23.9109 28.3146 25.5554C27.2158 27.1999 25.6541 28.4817 23.8268 29.2387C21.9995 29.9956 19.9889 30.1937 18.049 29.8079C16.1092 29.4221 14.3273 28.4697 12.9288 27.0712C11.5302 25.6727 10.5777 23.8909 10.1919 21.9511C9.80597 20.0112 10.004 18.0006 10.7608 16.1733C11.5177 14.346 12.7994 12.7842 14.4439 11.6853C16.0884 10.5865 18.0218 10 19.9997 10C20.2063 10 20.4066 10.0179 20.608 10.0358L20.7643 10.0488C20.8688 10.0533 20.9731 10.0369 21.0713 10.0006C21.1694 9.96439 21.2593 9.90899 21.3359 9.83765C21.4124 9.76632 21.474 9.68048 21.517 9.58513C21.5601 9.48978 21.5837 9.38683 21.5866 9.28225Z" fill="black"/>
<path d="M24.9998 10.8333V13.8216L19.4107 19.4108C19.3311 19.4877 19.2676 19.5797 19.2239 19.6813C19.1802 19.783 19.1572 19.8923 19.1563 20.003C19.1553 20.1136 19.1764 20.2234 19.2183 20.3258C19.2602 20.4282 19.3221 20.5212 19.4003 20.5995C19.4786 20.6777 19.5716 20.7396 19.674 20.7815C19.7764 20.8234 19.8862 20.8445 19.9968 20.8435C20.1075 20.8426 20.2168 20.8196 20.3185 20.7759C20.4202 20.7322 20.5121 20.6688 20.589 20.5892L26.1782 15H29.1665C29.2759 15 29.3843 14.9784 29.4854 14.9366C29.5865 14.8947 29.6783 14.8332 29.7557 14.7558L34.7557 9.75583C34.8722 9.63929 34.9515 9.49082 34.9836 9.32919C35.0158 9.16756 34.9993 9.00004 34.9362 8.84779C34.8732 8.69554 34.7664 8.5654 34.6294 8.47383C34.4924 8.38226 34.3313 8.33337 34.1665 8.33333H31.6665V5.83333C31.6665 5.66854 31.6176 5.50746 31.526 5.37045C31.4344 5.23344 31.3043 5.12666 31.152 5.0636C30.9998 5.00054 30.8323 4.98404 30.6706 5.01618C30.509 5.04832 30.3605 5.12766 30.244 5.24416L25.244 10.2442C25.1666 10.3215 25.1052 10.4134 25.0633 10.5144C25.0214 10.6155 24.9998 10.7239 24.9998 10.8333ZM26.6665 11.1784L29.9998 7.84508V9.16666C29.9998 9.38768 30.0876 9.59964 30.2439 9.75592C30.4002 9.9122 30.6121 10 30.8332 10H32.1547L28.8214 13.3333H26.6665V11.1784Z" fill="black"/>
</svg>
