<svg width="40" height="40" viewBox="0 0 40 40" fill="none" xmlns="http://www.w3.org/2000/svg">
<g clip-path="url(#clip0_2320_4746)">
<path d="M19.9408 5.29412C20.2937 5.29412 20.529 5.05882 20.529 4.70588V1.17647C20.529 0.823528 20.2937 0.588234 19.9408 0.588234C19.5878 0.588234 19.3525 0.823528 19.3525 1.17647V4.70588C19.3525 5 19.6466 5.29412 19.9408 5.29412ZM31.0584 8.58823L34.2937 6.11765C34.529 5.94117 34.5878 5.52941 34.4114 5.29412C34.2349 5.05882 33.8231 5 33.5878 5.17647L30.3525 7.64706C30.1172 7.82353 30.0584 8.23529 30.2349 8.47059C30.4702 8.7647 30.8231 8.7647 31.0584 8.58823ZM8.82312 8.58823C9.05841 8.7647 9.47017 8.7647 9.64665 8.47059C9.82312 8.23529 9.82312 7.82353 9.529 7.64706L6.2937 5.17647C6.05841 5 5.70547 5 5.47017 5.29412C5.2937 5.52941 5.35253 5.88235 5.58782 6.11765L8.82312 8.58823ZM25.5878 6.11765C25.8819 6.29412 26.2349 6.17647 26.4114 5.88235L28.1761 2.64706C28.3525 2.35294 28.2349 2 27.9408 1.88235C27.6466 1.70588 27.2937 1.82353 27.1172 2.11765L25.3525 5.35294C25.2349 5.64706 25.2937 6 25.5878 6.11765ZM5.76429 11.6471C5.88194 11.3529 5.76429 11 5.47017 10.8824L1.41135 9.11765C1.11723 9 0.764292 9.11765 0.646645 9.41176C0.528998 9.70588 0.646645 10.0588 0.940763 10.1765L4.99959 11.9412C5.2937 12.0588 5.64665 11.9412 5.76429 11.6471ZM39.3525 9.58823C39.2349 9.29412 38.8819 9.17647 38.5878 9.29412L34.529 11.1176C34.2349 11.2353 34.1172 11.5882 34.2349 11.8824C34.3525 12.1765 34.7055 12.2941 34.9996 12.1765L39.0584 10.3529C39.3525 10.2353 39.4702 9.88235 39.3525 9.58823ZM13.7055 5.82353C13.8819 6.11765 14.2349 6.23529 14.529 6.05882C14.8231 5.88235 14.9408 5.52941 14.7643 5.23529L13.0584 1.94118C12.8819 1.64706 12.529 1.52941 12.2349 1.70588C11.9408 1.88235 11.8231 2.23529 11.9996 2.52941L13.7055 5.82353ZM4.94076 14.2353C4.70547 14.4706 4.70547 14.8235 4.94076 15.0588C5.17606 15.2941 11.7055 22.2941 19.9408 22.2941C28.1761 22.2941 34.7055 15.2941 34.9408 15C35.1761 14.7647 35.1761 14.4118 34.9408 14.1765C34.7055 13.9412 28.1761 6.94118 19.9408 6.94118C11.7055 6.94118 5.17606 13.9412 4.94076 14.2353ZM19.9408 21.1176C16.3525 21.1176 13.4114 18.1765 13.4114 14.6471C13.4114 11.0588 16.3525 8.17647 19.9408 8.17647C23.529 8.17647 26.4702 11.1176 26.4702 14.6471C26.4702 18.2353 23.529 21.1176 19.9408 21.1176ZM14.529 9.17647C13.1172 10.5882 12.2349 12.4706 12.2349 14.6471C12.2349 16.7647 13.1172 18.7059 14.529 20.1176C10.4114 18.5294 7.23488 15.7059 6.17606 14.6471C7.23488 13.5882 10.4114 10.7647 14.529 9.17647ZM25.3525 20.0588C26.7643 18.6471 27.6466 16.7647 27.6466 14.5882C27.6466 12.4706 26.7643 10.5294 25.3525 9.11765C29.4702 10.7059 32.6466 13.5294 33.7055 14.5882C32.6466 15.6471 29.4702 18.5294 25.3525 20.0588Z" fill="black"/>
<path d="M19.9411 10.2353C17.5293 10.2353 15.5293 12.1765 15.5293 14.5882C15.5293 17 17.4705 18.9412 19.9411 18.9412C22.3528 18.9412 24.3528 17 24.3528 14.5882C24.3528 12.2353 22.3528 10.2353 19.9411 10.2353ZM19.9411 17.8235C18.1764 17.8235 16.7058 16.4118 16.7058 14.6471C16.7058 12.8823 18.1175 11.4706 19.9411 11.4706C21.7058 11.4706 23.1764 12.8823 23.1764 14.6471C23.1764 16.4118 21.7058 17.8235 19.9411 17.8235ZM20.0587 28.0588C18.4116 28.0588 16.9999 29.4118 16.9999 31.1176C16.9999 32.8235 18.3528 34.1765 20.0587 34.1765C21.7646 34.1765 23.1175 32.8235 23.1175 31.1176C23.1175 29.4118 21.7646 28.0588 20.0587 28.0588ZM20.0587 32.9412C19.0587 32.9412 18.1764 32.1176 18.1764 31.0588C18.1764 30.0588 18.9999 29.1765 20.0587 29.1765C21.1175 29.1765 21.9411 30 21.9411 31.0588C21.9411 32.1176 21.1175 32.9412 20.0587 32.9412Z" fill="black"/>
<path d="M28.8239 28.3529C28.8239 27.8235 28.5886 27.3529 28.1769 27.0588C28.6475 25.1176 28.1769 24.0588 27.5886 23.5294C26.1769 22.1176 23.2945 22.6471 20.0592 24.8824C17.9416 23.4706 14.2945 21.7059 12.471 23.5294C10.6475 25.3529 12.4122 28.9412 13.8239 31.0588C13.5298 31.5294 13.2357 31.9412 13.0004 32.4118C12.0004 32.2941 11.1769 33.1176 11.1769 34.1176C11.1769 34.7059 11.471 35.1765 11.8828 35.4706C11.5298 37.1765 12.0592 38.1176 12.5298 38.6471C14.3533 40.4706 17.9416 38.7647 20.118 37.2941C22.2357 38.7059 25.8828 40.4706 27.7063 38.6471C29.5298 36.8235 27.7651 33.2353 26.3533 31.1176C26.5886 30.7647 26.8239 30.4118 27.0004 30.0588C28.0004 30.1176 28.8239 29.2941 28.8239 28.3529ZM27.1769 28.8823C26.8828 28.8823 26.7063 28.6471 26.7063 28.4118C26.7063 28.1176 26.9416 27.9412 27.1769 27.9412C27.471 27.9412 27.6475 28.1765 27.6475 28.4118C27.6475 28.6471 27.4122 28.8823 27.1769 28.8823ZM15.2945 31.1176C16.5886 29.3529 18.2357 27.7059 20.0592 26.3529C21.8239 27.6471 23.471 29.2941 24.8239 31.1176C23.471 33 21.7651 34.5882 20.0592 35.8824C18.3533 34.5882 16.7063 32.9412 15.2945 31.1176ZM13.3533 24.3529C14.5298 23.1765 17.5298 24.6471 19.0592 25.5882C17.4122 26.8824 15.8828 28.4118 14.5886 30C13.6475 28.5294 12.1769 25.5294 13.3533 24.3529ZM12.8828 33.5882C13.1769 33.5882 13.4122 33.8235 13.4122 34.1176C13.4122 34.4118 13.1769 34.6471 12.8828 34.6471C12.5886 34.6471 12.3533 34.3529 12.3533 34.1176C12.3533 33.8235 12.5886 33.5882 12.8828 33.5882ZM13.3533 37.8235C12.9416 37.4118 12.8239 36.7059 13.0004 35.7647C13.8828 35.7059 14.5298 35 14.5298 34.1176C14.5298 33.7059 14.3533 33.2941 14.0592 33C14.2357 32.7059 14.3533 32.4118 14.5886 32.1765C15.8239 33.7647 17.3533 35.2941 19.0592 36.5882C16.5298 38.1765 14.2357 38.7059 13.3533 37.8235ZM26.8239 37.8235C25.6475 39 22.6475 37.5294 21.1181 36.5882C22.7063 35.4118 24.2357 33.8824 25.5886 32.1765C26.5298 33.6471 28.0004 36.6471 26.8239 37.8235ZM21.1181 25.6471C23.6475 24.0588 25.9416 23.5294 26.8239 24.4118C27.2945 24.8824 27.3533 25.6471 27.118 26.7059C26.2357 26.7647 25.5298 27.4706 25.5298 28.3529C25.5298 28.7647 25.7063 29.1765 25.9416 29.4706C25.8239 29.6471 25.7063 29.8823 25.5886 30.0588C24.3533 28.4706 22.8239 26.9412 21.1181 25.6471ZM36.7651 17.6471C36.4122 17.6471 36.1769 17.8824 36.1769 18.2353V30.4706H31.7063L33.2357 28.9412C33.471 28.7059 33.471 28.3529 33.2357 28.1176C33.0004 27.8824 32.6475 27.8824 32.4122 28.1176L29.8828 30.6471C29.6475 30.8823 29.6475 31.2353 29.8828 31.4706L32.4122 34C32.6475 34.2353 33.0004 34.2353 33.2357 34C33.471 33.7647 33.471 33.4118 33.2357 33.1765L31.7063 31.6471H36.7651C37.118 31.6471 37.3533 31.4118 37.3533 31.0588V18.2353C37.3533 17.9412 37.118 17.6471 36.7651 17.6471ZM10.1769 30.7059C10.118 30.7059 10.118 30.7059 10.1769 30.7059L7.64746 28.1765C7.41217 27.9412 7.05923 27.9412 6.82393 28.1765C6.58864 28.4118 6.58864 28.7647 6.82393 29L8.35334 30.5294H3.82393V18.2353C3.82393 17.8824 3.58864 17.6471 3.2357 17.6471C2.88276 17.6471 2.64746 17.8824 2.64746 18.2353V31.0588C2.64746 31.4118 2.88276 31.6471 3.2357 31.6471H8.29452L6.76511 33.1765C6.52981 33.4118 6.52981 33.7647 6.76511 34C7.0004 34.2353 7.35334 34.2353 7.58864 34L10.1181 31.4706C10.3533 31.2941 10.3533 30.9412 10.1769 30.7059Z" fill="black"/>
</g>
<defs>
<clipPath id="clip0_2320_4746">
<rect width="40" height="40" fill="white"/>
</clipPath>
</defs>
</svg>
